<?xml version="1.0" encoding="UTF-8" standalone="no"?>
<!DOCTYPE svg PUBLIC "-//W3C//DTD SVG 1.1//EN"
 "http://www.w3.org/Graphics/SVG/1.1/DTD/svg11.dtd">
<!-- Generated by graphviz version 2.40.1 (20161225.0304)
 -->
<!-- Title: G Pages: 1 -->
<svg width="1628pt" height="660pt"
 viewBox="0.00 0.00 1628.00 660.00" xmlns="http://www.w3.org/2000/svg" xmlns:xlink="http://www.w3.org/1999/xlink">
<g id="graph0" class="graph" transform="scale(1 1) rotate(0) translate(4 656)">
<title>G</title>
<polygon fill="#ffffff" stroke="transparent" points="-4,4 -4,-656 1624,-656 1624,4 -4,4"/>
<!-- A0 -->
<g id="node1" class="node">
<title>A0</title>
<polygon fill="none" stroke="#000000" points="0,-224 0,-256 350,-256 350,-224 0,-224"/>
<text text-anchor="start" x="146.1005" y="-237" font-family="Helvetica,sans-Serif" font-size="10.00" fill="#000000">Parqueadero</text>
<polygon fill="none" stroke="#000000" points="0,-192 0,-224 350,-224 350,-192 0,-192"/>
<text text-anchor="start" x="173.6105" y="-205" font-family="Helvetica,sans-Serif" font-size="10.00" fill="#000000"> </text>
<polygon fill="none" stroke="#000000" points="0,-16 0,-192 350,-192 350,-16 0,-16"/>
<text text-anchor="start" x="96.521" y="-173" font-family="Helvetica,sans-Serif" font-size="10.00" fill="#000000">+Constructor(columnas:int, filas:int)</text>
<text text-anchor="start" x="115.677" y="-161" font-family="Helvetica,sans-Serif" font-size="10.00" fill="#000000"> +getCantidadPuestos():int</text>
<text text-anchor="start" x="45.9565" y="-149" font-family="Helvetica,sans-Serif" font-size="10.00" fill="#000000"> +verificarDisponibilidad(int posicionI, int posicionJ):Logico</text>
<text text-anchor="start" x="38.1615" y="-137" font-family="Helvetica,sans-Serif" font-size="10.00" fill="#000000"> +ocuparPuesto(int posicionI, int posicionJ, Vehiculo vehiculo)</text>
<text text-anchor="start" x="52.8875" y="-125" font-family="Helvetica,sans-Serif" font-size="10.00" fill="#000000"> +buscarYParquearVehiculo(Vehiculo vehiculo): Logico</text>
<text text-anchor="start" x="81.2345" y="-113" font-family="Helvetica,sans-Serif" font-size="10.00" fill="#000000"> +liberarPuesto(int posicionI, int posicionJ)</text>
<text text-anchor="start" x="55.116" y="-101" font-family="Helvetica,sans-Serif" font-size="10.00" fill="#000000"> +obtenerPropietario(int posicionI, int posicionJ):String</text>
<text text-anchor="start" x="74.1545" y="-89" font-family="Helvetica,sans-Serif" font-size="10.00" fill="#000000"> &#45;validarPlacaMotoExiste(String placa):Logico</text>
<text text-anchor="start" x="72.77" y="-77" font-family="Helvetica,sans-Serif" font-size="10.00" fill="#000000"> &#45;validarPlacaCarroExiste(String placa):Logico</text>
<text text-anchor="start" x="74.85" y="-65" font-family="Helvetica,sans-Serif" font-size="10.00" fill="#000000"> +generarReporteDiario(LocalDateTime feca)</text>
<text text-anchor="start" x="77.9" y="-53" font-family="Helvetica,sans-Serif" font-size="10.00" fill="#000000"> +generarReporteMensual(int mes, int año)</text>
<text text-anchor="start" x="130.285" y="-41" font-family="Helvetica,sans-Serif" font-size="10.00" fill="#000000"> &#45;inicializarReporte()</text>
<text text-anchor="start" x="9.699" y="-29" font-family="Helvetica,sans-Serif" font-size="10.00" fill="#000000"> &#45;actualizarReporte(Registro registro, Map&lt;TipoVehiculo, Double&gt; reporte)</text>
</g>
<!-- A1 -->
<g id="node2" class="node">
<title>A1</title>
<polygon fill="none" stroke="#000000" points="443.5,-386 443.5,-430 735.5,-430 735.5,-386 443.5,-386"/>
<text text-anchor="start" x="560.04" y="-411" font-family="Helvetica,sans-Serif" font-size="10.00" fill="#000000">&lt;&lt;abstract&gt;&gt;</text>
<text text-anchor="start" x="570.3285" y="-399" font-family="Helvetica,sans-Serif" font-size="10.00" fill="#000000">Vehiculo</text>
<polygon fill="none" stroke="#000000" points="443.5,-342 443.5,-386 735.5,-386 735.5,-342 443.5,-342"/>
<text text-anchor="start" x="561.441" y="-367" font-family="Helvetica,sans-Serif" font-size="10.00" fill="#000000">&#45;placa:String</text>
<text text-anchor="start" x="564.7755" y="-355" font-family="Helvetica,sans-Serif" font-size="10.00" fill="#000000">&#45;modelo:int</text>
<polygon fill="none" stroke="#000000" points="443.5,-226 443.5,-342 735.5,-342 735.5,-226 443.5,-226"/>
<text text-anchor="start" x="453.23" y="-323" font-family="Helvetica,sans-Serif" font-size="10.00" fill="#000000">+Constructor(placa:String, modelo:int, propietario:Propietario)</text>
<text text-anchor="start" x="527.402" y="-311" font-family="Helvetica,sans-Serif" font-size="10.00" fill="#000000"> +getHorasEstacionado():int</text>
<text text-anchor="start" x="487.668" y="-299" font-family="Helvetica,sans-Serif" font-size="10.00" fill="#000000"> +setHorasEstacionado(int horasEstacionado)</text>
<text text-anchor="start" x="534.907" y="-287" font-family="Helvetica,sans-Serif" font-size="10.00" fill="#000000"> +getTarifaHora():double</text>
<text text-anchor="start" x="513.2415" y="-275" font-family="Helvetica,sans-Serif" font-size="10.00" fill="#000000"> +setTarifaHora(double tarifaHora)</text>
<text text-anchor="start" x="536.301" y="-263" font-family="Helvetica,sans-Serif" font-size="10.00" fill="#000000"> +getRegistro():Registro</text>
<text text-anchor="start" x="519.914" y="-251" font-family="Helvetica,sans-Serif" font-size="10.00" fill="#000000"> +setRegistro(Registro registro)</text>
<text text-anchor="start" x="532.6915" y="-239" font-family="Helvetica,sans-Serif" font-size="10.00" fill="#000000"> +calcularTarifa():abstract</text>
</g>
<!-- A0&#45;&gt;A1 -->
<g id="edge1" class="edge">
<title>A0&#45;&gt;A1</title>
<path fill="none" stroke="#000000" d="M361.1341,-222.219C385.5847,-233.5447 410.4314,-245.0539 434.294,-256.1072"/>
<polygon fill="none" stroke="#000000" points="361.0731,-222.1907 353.9476,-223.2984 350.1845,-217.147 357.3101,-216.0393 361.0731,-222.1907"/>
<polygon fill="#000000" stroke="#000000" points="443.3884,-260.3199 432.4232,-260.1999 438.8515,-258.2183 434.3146,-256.1167 434.3146,-256.1167 434.3146,-256.1167 438.8515,-258.2183 436.206,-252.0335 443.3884,-260.3199 443.3884,-260.3199"/>
<text text-anchor="middle" x="423.3885" y="-257.3708" font-family="Helvetica,sans-Serif" font-size="10.00" fill="#000000">*</text>
<text text-anchor="middle" x="370.1845" y="-214.096" font-family="Helvetica,sans-Serif" font-size="10.00" fill="#000000">1</text>
</g>
<!-- A2 -->
<g id="node3" class="node">
<title>A2</title>
<polygon fill="none" stroke="#000000" points="400.5,-176 400.5,-208 779.5,-208 779.5,-176 400.5,-176"/>
<text text-anchor="start" x="574.4375" y="-189" font-family="Helvetica,sans-Serif" font-size="10.00" fill="#000000">Puesto</text>
<polygon fill="none" stroke="#000000" points="400.5,-132 400.5,-176 779.5,-176 779.5,-132 400.5,-132"/>
<text text-anchor="start" x="561.941" y="-157" font-family="Helvetica,sans-Serif" font-size="10.00" fill="#000000">&#45;posicionI:int</text>
<text text-anchor="start" x="560.8305" y="-145" font-family="Helvetica,sans-Serif" font-size="10.00" fill="#000000">&#45;posicionJ:int</text>
<polygon fill="none" stroke="#000000" points="400.5,-64 400.5,-132 779.5,-132 779.5,-64 400.5,-64"/>
<text text-anchor="start" x="410.3865" y="-113" font-family="Helvetica,sans-Serif" font-size="10.00" fill="#000000">+Constructor(posicionI:int, posicionJ:int, vehiculo:Vehiculo, columnas:int, filas:int)</text>
<text text-anchor="start" x="537.899" y="-101" font-family="Helvetica,sans-Serif" font-size="10.00" fill="#000000">+estaOcupado():Logico</text>
<text text-anchor="start" x="514.0085" y="-89" font-family="Helvetica,sans-Serif" font-size="10.00" fill="#000000">+ocuparPuesto(Vehiculo vehiculo)</text>
<text text-anchor="start" x="554.3025" y="-77" font-family="Helvetica,sans-Serif" font-size="10.00" fill="#000000">+liberarPuesto()</text>
</g>
<!-- A0&#45;&gt;A2 -->
<g id="edge2" class="edge">
<title>A0&#45;&gt;A2</title>
<path fill="none" stroke="#000000" d="M362.1869,-136C371.4082,-136 380.6829,-136 389.9372,-136"/>
<polygon fill="none" stroke="#000000" points="362.1845,-136.0001 356.1845,-140 350.1845,-136 356.1846,-132 362.1845,-136.0001"/>
<polygon fill="#000000" stroke="#000000" points="399.9676,-136 389.9676,-140.5001 394.9676,-136 389.9676,-136.0001 389.9676,-136.0001 389.9676,-136.0001 394.9676,-136 389.9675,-131.5001 399.9676,-136 399.9676,-136"/>
<text text-anchor="middle" x="381.8414" y="-141.4524" font-family="Helvetica,sans-Serif" font-size="10.00" fill="#000000">*</text>
<text text-anchor="middle" x="368.3107" y="-124.5476" font-family="Helvetica,sans-Serif" font-size="10.00" fill="#000000">1</text>
</g>
<!-- A6 -->
<g id="node7" class="node">
<title>A6</title>
<polygon fill="none" stroke="#000000" points="843,-88 843,-120 1188,-120 1188,-88 843,-88"/>
<text text-anchor="start" x="996.8885" y="-101" font-family="Helvetica,sans-Serif" font-size="10.00" fill="#000000">Registro</text>
<polygon fill="none" stroke="#000000" points="843,-44 843,-88 1188,-88 1188,-44 843,-44"/>
<text text-anchor="start" x="968.8185" y="-69" font-family="Helvetica,sans-Serif" font-size="10.00" fill="#000000">&#45;fechaEntrada:Fecha</text>
<text text-anchor="start" x="972.433" y="-57" font-family="Helvetica,sans-Serif" font-size="10.00" fill="#000000">&#45;fechaSalida:Fecha</text>
<polygon fill="none" stroke="#000000" points="843,0 843,-44 1188,-44 1188,0 843,0"/>
<text text-anchor="start" x="852.5405" y="-25" font-family="Helvetica,sans-Serif" font-size="10.00" fill="#000000">+Constructor(fechaEntrada:Fecha, fechaSalida:Fecha, vehiculo:Vehiculo)</text>
<text text-anchor="start" x="961.1855" y="-13" font-family="Helvetica,sans-Serif" font-size="10.00" fill="#000000"> +calcularCosto():double</text>
</g>
<!-- A0&#45;&gt;A6 -->
<g id="edge3" class="edge">
<title>A0&#45;&gt;A6</title>
<path fill="none" stroke="#000000" d="M361.9874,-63.2827C374.7264,-60.0079 387.4748,-57.1859 400,-55 543.6155,-29.9365 708.9792,-33.0304 832.0399,-41.3758"/>
<polygon fill="none" stroke="#000000" points="361.8895,-63.3089 357.128,-68.7245 350.2976,-66.4122 355.0591,-60.9966 361.8895,-63.3089"/>
<polygon fill="#000000" stroke="#000000" points="842.3168,-42.0916 832.0282,-45.8858 837.3288,-41.7442 832.3409,-41.3967 832.3409,-41.3967 832.3409,-41.3967 837.3288,-41.7442 832.6536,-36.9076 842.3168,-42.0916 842.3168,-42.0916"/>
<text text-anchor="middle" x="823.6471" y="-46.2641" font-family="Helvetica,sans-Serif" font-size="10.00" fill="#000000">1</text>
<text text-anchor="middle" x="365.6214" y="-50.5599" font-family="Helvetica,sans-Serif" font-size="10.00" fill="#000000">1</text>
</g>
<!-- A3 -->
<g id="node4" class="node">
<title>A3</title>
<polygon fill="none" stroke="#000000" points="942,-620 942,-652 1088,-652 1088,-620 942,-620"/>
<text text-anchor="start" x="990.8305" y="-633" font-family="Helvetica,sans-Serif" font-size="10.00" fill="#000000">Propietario</text>
<polygon fill="none" stroke="#000000" points="942,-588 942,-620 1088,-620 1088,-588 942,-588"/>
<text text-anchor="start" x="981.942" y="-601" font-family="Helvetica,sans-Serif" font-size="10.00" fill="#000000">&#45;nombre:String</text>
<polygon fill="none" stroke="#000000" points="942,-532 942,-588 1088,-588 1088,-532 942,-532"/>
<text text-anchor="start" x="951.5225" y="-569" font-family="Helvetica,sans-Serif" font-size="10.00" fill="#000000">+Constructor(nombre:String)</text>
<text text-anchor="start" x="969.5795" y="-557" font-family="Helvetica,sans-Serif" font-size="10.00" fill="#000000">+getNombre():String</text>
<text text-anchor="start" x="952.912" y="-545" font-family="Helvetica,sans-Serif" font-size="10.00" fill="#000000">+setNombre(String nombre)</text>
</g>
<!-- A1&#45;&gt;A3 -->
<g id="edge4" class="edge">
<title>A1&#45;&gt;A3</title>
<path fill="none" stroke="#000000" d="M699.3463,-430.1056C738.2916,-462.7657 783.7295,-497.1229 829,-523 861.1139,-541.3567 899.0189,-556.4553 932.2039,-567.7987"/>
<polygon fill="#000000" stroke="#000000" points="941.8831,-571.0477 930.9709,-572.1315 937.143,-569.4566 932.4029,-567.8654 932.4029,-567.8654 932.4029,-567.8654 937.143,-569.4566 933.8349,-563.5994 941.8831,-571.0477 941.8831,-571.0477"/>
<text text-anchor="middle" x="922.0095" y="-570.2926" font-family="Helvetica,sans-Serif" font-size="10.00" fill="#000000">1</text>
<text text-anchor="middle" x="718.6961" y="-432.1641" font-family="Helvetica,sans-Serif" font-size="10.00" fill="#000000">1</text>
</g>
<!-- A4 -->
<g id="node5" class="node">
<title>A4</title>
<polygon fill="none" stroke="#000000" points="869,-482 869,-514 1161,-514 1161,-482 869,-482"/>
<text text-anchor="start" x="1002.5025" y="-495" font-family="Helvetica,sans-Serif" font-size="10.00" fill="#000000">Carro</text>
<polygon fill="none" stroke="#000000" points="869,-450 869,-482 1161,-482 1161,-450 869,-450"/>
<text text-anchor="start" x="1013.6105" y="-463" font-family="Helvetica,sans-Serif" font-size="10.00" fill="#000000"> </text>
<polygon fill="none" stroke="#000000" points="869,-394 869,-450 1161,-450 1161,-394 869,-394"/>
<text text-anchor="start" x="878.73" y="-431" font-family="Helvetica,sans-Serif" font-size="10.00" fill="#000000">+Constructor(placa:String, modelo:int, propietario:Propietario)</text>
<text text-anchor="start" x="962.356" y="-419" font-family="Helvetica,sans-Serif" font-size="10.00" fill="#000000">+calcularTarifa():double</text>
<text text-anchor="start" x="954.018" y="-407" font-family="Helvetica,sans-Serif" font-size="10.00" fill="#000000">+getTarifaPorHora():double</text>
</g>
<!-- A1&#45;&gt;A4 -->
<g id="edge6" class="edge">
<title>A1&#45;&gt;A4</title>
<path fill="none" stroke="#000000" d="M745.2834,-374.1309C785.6501,-386.0844 828.9705,-398.9125 868.8246,-410.7142"/>
<polygon fill="none" stroke="#000000" points="746.2175,-370.7574 735.6352,-371.2739 744.2299,-377.4693 746.2175,-370.7574"/>
</g>
<!-- A5 -->
<g id="node6" class="node">
<title>A5</title>
<polygon fill="none" stroke="#000000" points="829,-344 829,-376 1201,-376 1201,-344 829,-344"/>
<text text-anchor="start" x="1003.887" y="-357" font-family="Helvetica,sans-Serif" font-size="10.00" fill="#000000">Moto</text>
<polygon fill="none" stroke="#000000" points="829,-312 829,-344 1201,-344 1201,-312 829,-312"/>
<text text-anchor="start" x="976.107" y="-325" font-family="Helvetica,sans-Serif" font-size="10.00" fill="#000000">&#45;velocidadMax:int</text>
<polygon fill="none" stroke="#000000" points="829,-256 829,-312 1201,-312 1201,-256 829,-256"/>
<text text-anchor="start" x="838.7225" y="-293" font-family="Helvetica,sans-Serif" font-size="10.00" fill="#000000">+Constructor(placa:String, modelo:int, propietario:Propietario, velocidadMax:int)</text>
<text text-anchor="start" x="962.356" y="-281" font-family="Helvetica,sans-Serif" font-size="10.00" fill="#000000">+calcularTarifa():double</text>
<text text-anchor="start" x="954.018" y="-269" font-family="Helvetica,sans-Serif" font-size="10.00" fill="#000000">+getTarifaPorHora():double</text>
</g>
<!-- A1&#45;&gt;A5 -->
<g id="edge7" class="edge">
<title>A1&#45;&gt;A5</title>
<path fill="none" stroke="#000000" d="M745.9231,-323.5885C772.9435,-322.8265 801.27,-322.0276 828.9819,-321.2461"/>
<polygon fill="none" stroke="#000000" points="745.5326,-320.0981 735.6352,-323.8787 745.73,-327.0953 745.5326,-320.0981"/>
</g>
<!-- A1&#45;&gt;A6 -->
<g id="edge10" class="edge">
<title>A1&#45;&gt;A6</title>
<path fill="none" stroke="#000000" d="M743.9328,-245.9866C756.3403,-236.9145 768.2252,-227.2283 779,-217 808.3239,-189.1634 798.0706,-167.0411 829,-141 837.8911,-133.5141 847.5807,-126.6122 857.7152,-120.2681"/>
<polygon fill="#000000" stroke="#000000" points="735.7103,-251.8591 741.2326,-242.3852 739.7791,-248.9532 743.848,-246.0472 743.848,-246.0472 743.848,-246.0472 739.7791,-248.9532 746.4634,-249.7091 735.7103,-251.8591 735.7103,-251.8591"/>
<text text-anchor="middle" x="846.9367" y="-134.1151" font-family="Helvetica,sans-Serif" font-size="10.00" fill="#000000">1</text>
<text text-anchor="middle" x="745.5483" y="-231.4461" font-family="Helvetica,sans-Serif" font-size="10.00" fill="#000000">1</text>
</g>
<!-- A8 -->
<g id="node9" class="node">
<title>A8</title>
<polygon fill="none" stroke="#000000" points="977,-194 977,-238 1054,-238 1054,-194 977,-194"/>
<text text-anchor="start" x="990.764" y="-219" font-family="Helvetica,sans-Serif" font-size="10.00" fill="#000000">&lt;&lt;Enum&gt;&gt;</text>
<text text-anchor="start" x="986.6055" y="-207" font-family="Helvetica,sans-Serif" font-size="10.00" fill="#000000">TipoVehiculo</text>
<polygon fill="none" stroke="#000000" points="977,-150 977,-194 1054,-194 1054,-150 977,-150"/>
<text text-anchor="start" x="1000.502" y="-175" font-family="Helvetica,sans-Serif" font-size="10.00" fill="#000000">MOTO</text>
<text text-anchor="start" x="997.4475" y="-163" font-family="Helvetica,sans-Serif" font-size="10.00" fill="#000000">CARRO</text>
</g>
<!-- A1&#45;&gt;A8 -->
<g id="edge5" class="edge">
<title>A1&#45;&gt;A8</title>
<path fill="none" stroke="#000000" d="M735.7387,-277.2858C766.4562,-266.9863 798.7208,-256.4281 829,-247 875.4979,-232.5218 929.0121,-217.4367 966.6671,-207.0797"/>
<polygon fill="#000000" stroke="#000000" points="976.3655,-204.4202 967.9116,-211.4046 971.5435,-205.7425 966.7216,-207.0648 966.7216,-207.0648 966.7216,-207.0648 971.5435,-205.7425 965.5315,-202.725 976.3655,-204.4202 976.3655,-204.4202"/>
<text text-anchor="middle" x="961.12" y="-214.3652" font-family="Helvetica,sans-Serif" font-size="10.00" fill="#000000">1</text>
<text text-anchor="middle" x="750.2482" y="-260.5208" font-family="Helvetica,sans-Serif" font-size="10.00" fill="#000000">1</text>
</g>
<!-- A10 -->
<g id="node11" class="node">
<title>A10</title>
<polygon fill="none" stroke="#000000" points="1396.5,-454 1396.5,-498 1475.5,-498 1475.5,-454 1396.5,-454"/>
<text text-anchor="start" x="1411.264" y="-479" font-family="Helvetica,sans-Serif" font-size="10.00" fill="#000000">&lt;&lt;Enum&gt;&gt;</text>
<text text-anchor="start" x="1413.7795" y="-467" font-family="Helvetica,sans-Serif" font-size="10.00" fill="#000000">TipoCarro</text>
<polygon fill="none" stroke="#000000" points="1396.5,-410 1396.5,-454 1475.5,-454 1475.5,-410 1396.5,-410"/>
<text text-anchor="start" x="1406.2795" y="-435" font-family="Helvetica,sans-Serif" font-size="10.00" fill="#000000">CAMIONETA</text>
<text text-anchor="start" x="1406.5545" y="-423" font-family="Helvetica,sans-Serif" font-size="10.00" fill="#000000">DEPORTIVO</text>
</g>
<!-- A4&#45;&gt;A10 -->
<g id="edge8" class="edge">
<title>A4&#45;&gt;A10</title>
<path fill="none" stroke="#000000" d="M1161.1852,-454C1239.3737,-454 1330.6314,-454 1385.6925,-454"/>
<polygon fill="#000000" stroke="#000000" points="1395.8742,-454 1385.8743,-458.5001 1390.8742,-454 1385.8742,-454.0001 1385.8742,-454.0001 1385.8742,-454.0001 1390.8742,-454 1385.8742,-449.5001 1395.8742,-454 1395.8742,-454"/>
<text text-anchor="middle" x="1377.7481" y="-459.4524" font-family="Helvetica,sans-Serif" font-size="10.00" fill="#000000">1</text>
<text text-anchor="middle" x="1179.3114" y="-442.5476" font-family="Helvetica,sans-Serif" font-size="10.00" fill="#000000">1</text>
</g>
<!-- A9 -->
<g id="node10" class="node">
<title>A9</title>
<polygon fill="none" stroke="#000000" points="1401.5,-316 1401.5,-360 1470.5,-360 1470.5,-316 1401.5,-316"/>
<text text-anchor="start" x="1411.264" y="-341" font-family="Helvetica,sans-Serif" font-size="10.00" fill="#000000">&lt;&lt;Enum&gt;&gt;</text>
<text text-anchor="start" x="1415.164" y="-329" font-family="Helvetica,sans-Serif" font-size="10.00" fill="#000000">TipoMoto</text>
<polygon fill="none" stroke="#000000" points="1401.5,-272 1401.5,-316 1470.5,-316 1470.5,-272 1401.5,-272"/>
<text text-anchor="start" x="1414.6085" y="-297" font-family="Helvetica,sans-Serif" font-size="10.00" fill="#000000">CLASICA</text>
<text text-anchor="start" x="1415.7235" y="-285" font-family="Helvetica,sans-Serif" font-size="10.00" fill="#000000">HIBRIDA</text>
</g>
<!-- A5&#45;&gt;A9 -->
<g id="edge9" class="edge">
<title>A5&#45;&gt;A9</title>
<path fill="none" stroke="#000000" d="M1201.2738,-316C1271.3826,-316 1345.0946,-316 1390.6785,-316"/>
<polygon fill="#000000" stroke="#000000" points="1400.8038,-316 1390.8038,-320.5001 1395.8038,-316 1390.8038,-316.0001 1390.8038,-316.0001 1390.8038,-316.0001 1395.8038,-316 1390.8037,-311.5001 1400.8038,-316 1400.8038,-316"/>
<text text-anchor="middle" x="1382.6776" y="-321.4524" font-family="Helvetica,sans-Serif" font-size="10.00" fill="#000000">1</text>
<text text-anchor="middle" x="1219.3999" y="-304.5476" font-family="Helvetica,sans-Serif" font-size="10.00" fill="#000000">1</text>
</g>
<!-- A7 -->
<g id="node8" class="node">
<title>A7</title>
<polygon fill="none" stroke="#000000" points="1251.5,-76 1251.5,-108 1620.5,-108 1620.5,-76 1251.5,-76"/>
<text text-anchor="start" x="1399.0515" y="-89" font-family="Helvetica,sans-Serif" font-size="10.00" fill="#000000">CalculadorCosto</text>
<polygon fill="none" stroke="#000000" points="1251.5,-44 1251.5,-76 1620.5,-76 1620.5,-44 1251.5,-44"/>
<text text-anchor="start" x="1434.6105" y="-57" font-family="Helvetica,sans-Serif" font-size="10.00" fill="#000000"> </text>
<polygon fill="none" stroke="#000000" points="1251.5,-12 1251.5,-44 1620.5,-44 1620.5,-12 1251.5,-12"/>
<text text-anchor="start" x="1261.374" y="-25" font-family="Helvetica,sans-Serif" font-size="10.00" fill="#000000">+calcularCosto(fechaEntrada:Fecha, fechaSalida:Fecha, tarifaPorHora:double)</text>
</g>
<!-- A6&#45;&gt;A7 -->
<g id="edge11" class="edge">
<title>A6&#45;&gt;A7</title>
<path fill="none" stroke="#000000" d="M1187.5502,-60C1204.9823,-60 1222.7719,-60 1240.4182,-60"/>
<polygon fill="#000000" stroke="#000000" points="1250.7877,-60 1240.7878,-64.5001 1245.7877,-60 1240.7877,-60.0001 1240.7877,-60.0001 1240.7877,-60.0001 1245.7877,-60 1240.7877,-55.5001 1250.7877,-60 1250.7877,-60"/>
<text text-anchor="middle" x="1232.6616" y="-65.4524" font-family="Helvetica,sans-Serif" font-size="10.00" fill="#000000">1</text>
<text text-anchor="middle" x="1205.6764" y="-48.5476" font-family="Helvetica,sans-Serif" font-size="10.00" fill="#000000">1</text>
</g>
</g>
</svg>
