<?xml version="1.0" encoding="UTF-8" standalone="no"?>
<!DOCTYPE svg PUBLIC "-//W3C//DTD SVG 1.1//EN"
 "http://www.w3.org/Graphics/SVG/1.1/DTD/svg11.dtd">
<!-- Generated by graphviz version 2.40.1 (20161225.0304)
 -->
<!-- Title: G Pages: 1 -->
<svg width="1716pt" height="660pt"
 viewBox="0.00 0.00 1716.00 660.00" xmlns="http://www.w3.org/2000/svg" xmlns:xlink="http://www.w3.org/1999/xlink">
<g id="graph0" class="graph" transform="scale(1 1) rotate(0) translate(4 656)">
<title>G</title>
<polygon fill="#ffffff" stroke="transparent" points="-4,4 -4,-656 1712,-656 1712,4 -4,4"/>
<!-- A0 -->
<g id="node1" class="node">
<title>A0</title>
<polygon fill="none" stroke="#000000" points="0,-224 0,-256 350,-256 350,-224 0,-224"/>
<text text-anchor="start" x="146.1005" y="-237" font-family="Helvetica,sans-Serif" font-size="10.00" fill="#000000">Parqueadero</text>
<polygon fill="none" stroke="#000000" points="0,-192 0,-224 350,-224 350,-192 0,-192"/>
<text text-anchor="start" x="173.6105" y="-205" font-family="Helvetica,sans-Serif" font-size="10.00" fill="#000000"> </text>
<polygon fill="none" stroke="#000000" points="0,-16 0,-192 350,-192 350,-16 0,-16"/>
<text text-anchor="start" x="96.521" y="-173" font-family="Helvetica,sans-Serif" font-size="10.00" fill="#000000">+Constructor(columnas:int, filas:int)</text>
<text text-anchor="start" x="115.677" y="-161" font-family="Helvetica,sans-Serif" font-size="10.00" fill="#000000"> +getCantidadPuestos():int</text>
<text text-anchor="start" x="45.9565" y="-149" font-family="Helvetica,sans-Serif" font-size="10.00" fill="#000000"> +verificarDisponibilidad(int posicionI, int posicionJ):Logico</text>
<text text-anchor="start" x="38.1615" y="-137" font-family="Helvetica,sans-Serif" font-size="10.00" fill="#000000"> +ocuparPuesto(int posicionI, int posicionJ, Vehiculo vehiculo)</text>
<text text-anchor="start" x="52.8875" y="-125" font-family="Helvetica,sans-Serif" font-size="10.00" fill="#000000"> +buscarYParquearVehiculo(Vehiculo vehiculo): Logico</text>
<text text-anchor="start" x="81.2345" y="-113" font-family="Helvetica,sans-Serif" font-size="10.00" fill="#000000"> +liberarPuesto(int posicionI, int posicionJ)</text>
<text text-anchor="start" x="55.116" y="-101" font-family="Helvetica,sans-Serif" font-size="10.00" fill="#000000"> +obtenerPropietario(int posicionI, int posicionJ):String</text>
<text text-anchor="start" x="74.1545" y="-89" font-family="Helvetica,sans-Serif" font-size="10.00" fill="#000000"> &#45;validarPlacaMotoExiste(String placa):Logico</text>
<text text-anchor="start" x="72.77" y="-77" font-family="Helvetica,sans-Serif" font-size="10.00" fill="#000000"> &#45;validarPlacaCarroExiste(String placa):Logico</text>
<text text-anchor="start" x="74.85" y="-65" font-family="Helvetica,sans-Serif" font-size="10.00" fill="#000000"> +generarReporteDiario(LocalDateTime feca)</text>
<text text-anchor="start" x="77.9" y="-53" font-family="Helvetica,sans-Serif" font-size="10.00" fill="#000000"> +generarReporteMensual(int mes, int año)</text>
<text text-anchor="start" x="130.285" y="-41" font-family="Helvetica,sans-Serif" font-size="10.00" fill="#000000"> &#45;inicializarReporte()</text>
<text text-anchor="start" x="9.699" y="-29" font-family="Helvetica,sans-Serif" font-size="10.00" fill="#000000"> &#45;actualizarReporte(Registro registro, Map&lt;TipoVehiculo, Double&gt; reporte)</text>
</g>
<!-- A1 -->
<g id="node2" class="node">
<title>A1</title>
<polygon fill="none" stroke="#000000" points="443.5,-386 443.5,-430 735.5,-430 735.5,-386 443.5,-386"/>
<text text-anchor="start" x="560.04" y="-411" font-family="Helvetica,sans-Serif" font-size="10.00" fill="#000000">&lt;&lt;abstract&gt;&gt;</text>
<text text-anchor="start" x="570.3285" y="-399" font-family="Helvetica,sans-Serif" font-size="10.00" fill="#000000">Vehiculo</text>
<polygon fill="none" stroke="#000000" points="443.5,-342 443.5,-386 735.5,-386 735.5,-342 443.5,-342"/>
<text text-anchor="start" x="561.441" y="-367" font-family="Helvetica,sans-Serif" font-size="10.00" fill="#000000">&#45;placa:String</text>
<text text-anchor="start" x="564.7755" y="-355" font-family="Helvetica,sans-Serif" font-size="10.00" fill="#000000">&#45;modelo:int</text>
<polygon fill="none" stroke="#000000" points="443.5,-226 443.5,-342 735.5,-342 735.5,-226 443.5,-226"/>
<text text-anchor="start" x="453.23" y="-323" font-family="Helvetica,sans-Serif" font-size="10.00" fill="#000000">+Constructor(placa:String, modelo:int, propietario:Propietario)</text>
<text text-anchor="start" x="527.402" y="-311" font-family="Helvetica,sans-Serif" font-size="10.00" fill="#000000"> +getHorasEstacionado():int</text>
<text text-anchor="start" x="487.668" y="-299" font-family="Helvetica,sans-Serif" font-size="10.00" fill="#000000"> +setHorasEstacionado(int horasEstacionado)</text>
<text text-anchor="start" x="534.907" y="-287" font-family="Helvetica,sans-Serif" font-size="10.00" fill="#000000"> +getTarifaHora():double</text>
<text text-anchor="start" x="513.2415" y="-275" font-family="Helvetica,sans-Serif" font-size="10.00" fill="#000000"> +setTarifaHora(double tarifaHora)</text>
<text text-anchor="start" x="536.301" y="-263" font-family="Helvetica,sans-Serif" font-size="10.00" fill="#000000"> +getRegistro():Registro</text>
<text text-anchor="start" x="519.914" y="-251" font-family="Helvetica,sans-Serif" font-size="10.00" fill="#000000"> +setRegistro(Registro registro)</text>
<text text-anchor="start" x="532.6915" y="-239" font-family="Helvetica,sans-Serif" font-size="10.00" fill="#000000"> +calcularTarifa():abstract</text>
</g>
<!-- A0&#45;&gt;A1 -->
<g id="edge1" class="edge">
<title>A0&#45;&gt;A1</title>
<path fill="none" stroke="#000000" d="M361.1341,-222.219C385.5847,-233.5447 410.4314,-245.0539 434.294,-256.1072"/>
<polygon fill="none" stroke="#000000" points="361.0731,-222.1907 353.9476,-223.2984 350.1845,-217.147 357.3101,-216.0393 361.0731,-222.1907"/>
<polygon fill="#000000" stroke="#000000" points="443.3884,-260.3199 432.4232,-260.1999 438.8515,-258.2183 434.3146,-256.1167 434.3146,-256.1167 434.3146,-256.1167 438.8515,-258.2183 436.206,-252.0335 443.3884,-260.3199 443.3884,-260.3199"/>
<text text-anchor="middle" x="423.3885" y="-257.3708" font-family="Helvetica,sans-Serif" font-size="10.00" fill="#000000">*</text>
<text text-anchor="middle" x="370.1845" y="-214.096" font-family="Helvetica,sans-Serif" font-size="10.00" fill="#000000">1</text>
</g>
<!-- A2 -->
<g id="node3" class="node">
<title>A2</title>
<polygon fill="none" stroke="#000000" points="400.5,-176 400.5,-208 779.5,-208 779.5,-176 400.5,-176"/>
<text text-anchor="start" x="574.4375" y="-189" font-family="Helvetica,sans-Serif" font-size="10.00" fill="#000000">Puesto</text>
<polygon fill="none" stroke="#000000" points="400.5,-132 400.5,-176 779.5,-176 779.5,-132 400.5,-132"/>
<text text-anchor="start" x="561.941" y="-157" font-family="Helvetica,sans-Serif" font-size="10.00" fill="#000000">&#45;posicionI:int</text>
<text text-anchor="start" x="560.8305" y="-145" font-family="Helvetica,sans-Serif" font-size="10.00" fill="#000000">&#45;posicionJ:int</text>
<polygon fill="none" stroke="#000000" points="400.5,-64 400.5,-132 779.5,-132 779.5,-64 400.5,-64"/>
<text text-anchor="start" x="410.3865" y="-113" font-family="Helvetica,sans-Serif" font-size="10.00" fill="#000000">+Constructor(posicionI:int, posicionJ:int, vehiculo:Vehiculo, columnas:int, filas:int)</text>
<text text-anchor="start" x="537.899" y="-101" font-family="Helvetica,sans-Serif" font-size="10.00" fill="#000000">+estaOcupado():Logico</text>
<text text-anchor="start" x="514.0085" y="-89" font-family="Helvetica,sans-Serif" font-size="10.00" fill="#000000">+ocuparPuesto(Vehiculo vehiculo)</text>
<text text-anchor="start" x="554.3025" y="-77" font-family="Helvetica,sans-Serif" font-size="10.00" fill="#000000">+liberarPuesto()</text>
</g>
<!-- A0&#45;&gt;A2 -->
<g id="edge2" class="edge">
<title>A0&#45;&gt;A2</title>
<path fill="none" stroke="#000000" d="M362.1869,-136C371.4082,-136 380.6829,-136 389.9372,-136"/>
<polygon fill="none" stroke="#000000" points="362.1845,-136.0001 356.1845,-140 350.1845,-136 356.1846,-132 362.1845,-136.0001"/>
<polygon fill="#000000" stroke="#000000" points="399.9676,-136 389.9676,-140.5001 394.9676,-136 389.9676,-136.0001 389.9676,-136.0001 389.9676,-136.0001 394.9676,-136 389.9675,-131.5001 399.9676,-136 399.9676,-136"/>
<text text-anchor="middle" x="381.8414" y="-141.4524" font-family="Helvetica,sans-Serif" font-size="10.00" fill="#000000">*</text>
<text text-anchor="middle" x="368.3107" y="-124.5476" font-family="Helvetica,sans-Serif" font-size="10.00" fill="#000000">1</text>
</g>
<!-- A6 -->
<g id="node7" class="node">
<title>A6</title>
<polygon fill="none" stroke="#000000" points="887,-88 887,-120 1232,-120 1232,-88 887,-88"/>
<text text-anchor="start" x="1040.8885" y="-101" font-family="Helvetica,sans-Serif" font-size="10.00" fill="#000000">Registro</text>
<polygon fill="none" stroke="#000000" points="887,-44 887,-88 1232,-88 1232,-44 887,-44"/>
<text text-anchor="start" x="1012.8185" y="-69" font-family="Helvetica,sans-Serif" font-size="10.00" fill="#000000">&#45;fechaEntrada:Fecha</text>
<text text-anchor="start" x="1016.433" y="-57" font-family="Helvetica,sans-Serif" font-size="10.00" fill="#000000">&#45;fechaSalida:Fecha</text>
<polygon fill="none" stroke="#000000" points="887,0 887,-44 1232,-44 1232,0 887,0"/>
<text text-anchor="start" x="896.5405" y="-25" font-family="Helvetica,sans-Serif" font-size="10.00" fill="#000000">+Constructor(fechaEntrada:Fecha, fechaSalida:Fecha, vehiculo:Vehiculo)</text>
<text text-anchor="start" x="1005.1855" y="-13" font-family="Helvetica,sans-Serif" font-size="10.00" fill="#000000"> +calcularCosto():double</text>
</g>
<!-- A0&#45;&gt;A6 -->
<g id="edge3" class="edge">
<title>A0&#45;&gt;A6</title>
<path fill="none" stroke="#000000" d="M361.9874,-63.2827C374.7264,-60.0079 387.4748,-57.1859 400,-55 559.0046,-27.2509 742.889,-31.6037 875.9453,-41.1044"/>
<polygon fill="none" stroke="#000000" points="361.8895,-63.3089 357.128,-68.7245 350.2976,-66.4122 355.0591,-60.9966 361.8895,-63.3089"/>
<polygon fill="#000000" stroke="#000000" points="886.2397,-41.857 875.9382,-45.6158 881.253,-41.4924 876.2663,-41.1278 876.2663,-41.1278 876.2663,-41.1278 881.253,-41.4924 876.5944,-36.6398 886.2397,-41.857 886.2397,-41.857"/>
<text text-anchor="middle" x="867.5455" y="-45.9653" font-family="Helvetica,sans-Serif" font-size="10.00" fill="#000000">1</text>
<text text-anchor="middle" x="365.6214" y="-50.5599" font-family="Helvetica,sans-Serif" font-size="10.00" fill="#000000">1</text>
</g>
<!-- A3 -->
<g id="node4" class="node">
<title>A3</title>
<polygon fill="none" stroke="#000000" points="986,-620 986,-652 1132,-652 1132,-620 986,-620"/>
<text text-anchor="start" x="1034.8305" y="-633" font-family="Helvetica,sans-Serif" font-size="10.00" fill="#000000">Propietario</text>
<polygon fill="none" stroke="#000000" points="986,-588 986,-620 1132,-620 1132,-588 986,-588"/>
<text text-anchor="start" x="1025.942" y="-601" font-family="Helvetica,sans-Serif" font-size="10.00" fill="#000000">&#45;nombre:String</text>
<polygon fill="none" stroke="#000000" points="986,-532 986,-588 1132,-588 1132,-532 986,-532"/>
<text text-anchor="start" x="995.5225" y="-569" font-family="Helvetica,sans-Serif" font-size="10.00" fill="#000000">+Constructor(nombre:String)</text>
<text text-anchor="start" x="1013.5795" y="-557" font-family="Helvetica,sans-Serif" font-size="10.00" fill="#000000">+getNombre():String</text>
<text text-anchor="start" x="996.912" y="-545" font-family="Helvetica,sans-Serif" font-size="10.00" fill="#000000">+setNombre(String nombre)</text>
</g>
<!-- A1&#45;&gt;A3 -->
<g id="edge4" class="edge">
<title>A1&#45;&gt;A3</title>
<path fill="none" stroke="#000000" d="M696.329,-430.0171C735.6548,-463.345 782.0985,-498.1399 829,-523 875.0696,-547.4192 931.0233,-564.4477 976.2064,-575.4784"/>
<polygon fill="#000000" stroke="#000000" points="985.9703,-577.8102 975.1985,-579.8641 981.107,-576.6487 976.2438,-575.4872 976.2438,-575.4872 976.2438,-575.4872 981.107,-576.6487 977.2891,-571.1103 985.9703,-577.8102 985.9703,-577.8102"/>
<text text-anchor="middle" x="966.3765" y="-578.8208" font-family="Helvetica,sans-Serif" font-size="10.00" fill="#000000">1</text>
<text text-anchor="middle" x="715.6582" y="-432.1537" font-family="Helvetica,sans-Serif" font-size="10.00" fill="#000000">1</text>
</g>
<!-- A4 -->
<g id="node5" class="node">
<title>A4</title>
<polygon fill="none" stroke="#000000" points="866,-482 866,-514 1252,-514 1252,-482 866,-482"/>
<text text-anchor="start" x="1046.5025" y="-495" font-family="Helvetica,sans-Serif" font-size="10.00" fill="#000000">Carro</text>
<polygon fill="none" stroke="#000000" points="866,-450 866,-482 1252,-482 1252,-450 866,-450"/>
<text text-anchor="start" x="1057.6105" y="-463" font-family="Helvetica,sans-Serif" font-size="10.00" fill="#000000"> </text>
<polygon fill="none" stroke="#000000" points="866,-394 866,-450 1252,-450 1252,-394 866,-394"/>
<text text-anchor="start" x="875.7855" y="-431" font-family="Helvetica,sans-Serif" font-size="10.00" fill="#000000">+Constructor(placa:String, modelo:int, propietario:Propietario, tipoCarro:TipoCarro)</text>
<text text-anchor="start" x="1006.356" y="-419" font-family="Helvetica,sans-Serif" font-size="10.00" fill="#000000">+calcularTarifa():double</text>
<text text-anchor="start" x="998.018" y="-407" font-family="Helvetica,sans-Serif" font-size="10.00" fill="#000000">+getTarifaPorHora():double</text>
</g>
<!-- A1&#45;&gt;A4 -->
<g id="edge6" class="edge">
<title>A1&#45;&gt;A4</title>
<path fill="none" stroke="#000000" d="M745.5256,-369.8727C784.0618,-380.2147 825.7991,-391.4157 865.8655,-402.1684"/>
<polygon fill="none" stroke="#000000" points="746.3657,-366.4744 735.8002,-367.2627 744.5512,-373.2351 746.3657,-366.4744"/>
</g>
<!-- A5 -->
<g id="node6" class="node">
<title>A5</title>
<polygon fill="none" stroke="#000000" points="829,-344 829,-376 1289,-376 1289,-344 829,-344"/>
<text text-anchor="start" x="1047.887" y="-357" font-family="Helvetica,sans-Serif" font-size="10.00" fill="#000000">Moto</text>
<polygon fill="none" stroke="#000000" points="829,-312 829,-344 1289,-344 1289,-312 829,-312"/>
<text text-anchor="start" x="1020.107" y="-325" font-family="Helvetica,sans-Serif" font-size="10.00" fill="#000000">&#45;velocidadMax:int</text>
<polygon fill="none" stroke="#000000" points="829,-256 829,-312 1289,-312 1289,-256 829,-256"/>
<text text-anchor="start" x="838.547" y="-293" font-family="Helvetica,sans-Serif" font-size="10.00" fill="#000000">+Constructor(placa:String, modelo:int, propietario:Propietario, tipoMoto:TipoMoto, velocidadMax:int)</text>
<text text-anchor="start" x="1006.356" y="-281" font-family="Helvetica,sans-Serif" font-size="10.00" fill="#000000">+calcularTarifa():double</text>
<text text-anchor="start" x="998.018" y="-269" font-family="Helvetica,sans-Serif" font-size="10.00" fill="#000000">+getTarifaPorHora():double</text>
</g>
<!-- A1&#45;&gt;A5 -->
<g id="edge7" class="edge">
<title>A1&#45;&gt;A5</title>
<path fill="none" stroke="#000000" d="M745.942,-324.0015C772.6071,-323.3199 800.7946,-322.5995 828.8933,-321.8813"/>
<polygon fill="none" stroke="#000000" points="745.7075,-320.5062 735.8002,-324.2607 745.8864,-327.504 745.7075,-320.5062"/>
</g>
<!-- A1&#45;&gt;A6 -->
<g id="edge10" class="edge">
<title>A1&#45;&gt;A6</title>
<path fill="none" stroke="#000000" d="M743.9328,-245.9866C756.3403,-236.9145 768.2252,-227.2283 779,-217 808.3239,-189.1634 797.1521,-165.9093 829,-141 846.2567,-127.503 865.9353,-116.1528 886.3514,-106.633"/>
<polygon fill="#000000" stroke="#000000" points="735.7103,-251.8591 741.2326,-242.3852 739.7791,-248.9532 743.848,-246.0472 743.848,-246.0472 743.848,-246.0472 739.7791,-248.9532 746.4634,-249.7091 735.7103,-251.8591 735.7103,-251.8591"/>
<text text-anchor="middle" x="873.6322" y="-119.0674" font-family="Helvetica,sans-Serif" font-size="10.00" fill="#000000">1</text>
<text text-anchor="middle" x="745.5483" y="-231.4461" font-family="Helvetica,sans-Serif" font-size="10.00" fill="#000000">1</text>
</g>
<!-- A8 -->
<g id="node9" class="node">
<title>A8</title>
<polygon fill="none" stroke="#000000" points="1021,-194 1021,-238 1098,-238 1098,-194 1021,-194"/>
<text text-anchor="start" x="1034.764" y="-219" font-family="Helvetica,sans-Serif" font-size="10.00" fill="#000000">&lt;&lt;Enum&gt;&gt;</text>
<text text-anchor="start" x="1030.6055" y="-207" font-family="Helvetica,sans-Serif" font-size="10.00" fill="#000000">TipoVehiculo</text>
<polygon fill="none" stroke="#000000" points="1021,-150 1021,-194 1098,-194 1098,-150 1021,-150"/>
<text text-anchor="start" x="1044.502" y="-175" font-family="Helvetica,sans-Serif" font-size="10.00" fill="#000000">MOTO</text>
<text text-anchor="start" x="1041.4475" y="-163" font-family="Helvetica,sans-Serif" font-size="10.00" fill="#000000">CARRO</text>
</g>
<!-- A1&#45;&gt;A8 -->
<g id="edge5" class="edge">
<title>A1&#45;&gt;A8</title>
<path fill="none" stroke="#000000" d="M735.7008,-275.9792C766.3486,-265.8006 798.5954,-255.6215 829,-247 891.07,-229.3996 963.7902,-213.4009 1010.5816,-203.6913"/>
<polygon fill="#000000" stroke="#000000" points="1020.4483,-201.6573 1011.5628,-208.0837 1015.5513,-202.6668 1010.6543,-203.6764 1010.6543,-203.6764 1010.6543,-203.6764 1015.5513,-202.6668 1009.7457,-199.269 1020.4483,-201.6573 1020.4483,-201.6573"/>
<text text-anchor="middle" x="1004.4019" y="-210.5952" font-family="Helvetica,sans-Serif" font-size="10.00" fill="#000000">1</text>
<text text-anchor="middle" x="750.2608" y="-259.2677" font-family="Helvetica,sans-Serif" font-size="10.00" fill="#000000">1</text>
</g>
<!-- A10 -->
<g id="node11" class="node">
<title>A10</title>
<polygon fill="none" stroke="#000000" points="1484.5,-454 1484.5,-498 1563.5,-498 1563.5,-454 1484.5,-454"/>
<text text-anchor="start" x="1499.264" y="-479" font-family="Helvetica,sans-Serif" font-size="10.00" fill="#000000">&lt;&lt;Enum&gt;&gt;</text>
<text text-anchor="start" x="1501.7795" y="-467" font-family="Helvetica,sans-Serif" font-size="10.00" fill="#000000">TipoCarro</text>
<polygon fill="none" stroke="#000000" points="1484.5,-410 1484.5,-454 1563.5,-454 1563.5,-410 1484.5,-410"/>
<text text-anchor="start" x="1494.2795" y="-435" font-family="Helvetica,sans-Serif" font-size="10.00" fill="#000000">CAMIONETA</text>
<text text-anchor="start" x="1494.5545" y="-423" font-family="Helvetica,sans-Serif" font-size="10.00" fill="#000000">DEPORTIVO</text>
</g>
<!-- A4&#45;&gt;A10 -->
<g id="edge8" class="edge">
<title>A4&#45;&gt;A10</title>
<path fill="none" stroke="#000000" d="M1252.2903,-454C1333.0909,-454 1420.3678,-454 1473.4833,-454"/>
<polygon fill="#000000" stroke="#000000" points="1483.6389,-454 1473.6389,-458.5001 1478.6389,-454 1473.6389,-454.0001 1473.6389,-454.0001 1473.6389,-454.0001 1478.6389,-454 1473.6388,-449.5001 1483.6389,-454 1483.6389,-454"/>
<text text-anchor="middle" x="1465.5127" y="-459.4524" font-family="Helvetica,sans-Serif" font-size="10.00" fill="#000000">1</text>
<text text-anchor="middle" x="1270.4165" y="-442.5476" font-family="Helvetica,sans-Serif" font-size="10.00" fill="#000000">1</text>
</g>
<!-- A9 -->
<g id="node10" class="node">
<title>A9</title>
<polygon fill="none" stroke="#000000" points="1489.5,-316 1489.5,-360 1558.5,-360 1558.5,-316 1489.5,-316"/>
<text text-anchor="start" x="1499.264" y="-341" font-family="Helvetica,sans-Serif" font-size="10.00" fill="#000000">&lt;&lt;Enum&gt;&gt;</text>
<text text-anchor="start" x="1503.164" y="-329" font-family="Helvetica,sans-Serif" font-size="10.00" fill="#000000">TipoMoto</text>
<polygon fill="none" stroke="#000000" points="1489.5,-272 1489.5,-316 1558.5,-316 1558.5,-272 1489.5,-272"/>
<text text-anchor="start" x="1502.6085" y="-297" font-family="Helvetica,sans-Serif" font-size="10.00" fill="#000000">CLASICA</text>
<text text-anchor="start" x="1503.7235" y="-285" font-family="Helvetica,sans-Serif" font-size="10.00" fill="#000000">HIBRIDA</text>
</g>
<!-- A5&#45;&gt;A9 -->
<g id="edge9" class="edge">
<title>A5&#45;&gt;A9</title>
<path fill="none" stroke="#000000" d="M1289.2088,-316C1361.4379,-316 1433.9304,-316 1478.7393,-316"/>
<polygon fill="#000000" stroke="#000000" points="1488.968,-316 1478.968,-320.5001 1483.968,-316 1478.968,-316.0001 1478.968,-316.0001 1478.968,-316.0001 1483.968,-316 1478.9679,-311.5001 1488.968,-316 1488.968,-316"/>
<text text-anchor="middle" x="1470.8418" y="-321.4524" font-family="Helvetica,sans-Serif" font-size="10.00" fill="#000000">1</text>
<text text-anchor="middle" x="1307.3349" y="-304.5476" font-family="Helvetica,sans-Serif" font-size="10.00" fill="#000000">1</text>
</g>
<!-- A7 -->
<g id="node8" class="node">
<title>A7</title>
<polygon fill="none" stroke="#000000" points="1339.5,-76 1339.5,-108 1708.5,-108 1708.5,-76 1339.5,-76"/>
<text text-anchor="start" x="1487.0515" y="-89" font-family="Helvetica,sans-Serif" font-size="10.00" fill="#000000">CalculadorCosto</text>
<polygon fill="none" stroke="#000000" points="1339.5,-44 1339.5,-76 1708.5,-76 1708.5,-44 1339.5,-44"/>
<text text-anchor="start" x="1522.6105" y="-57" font-family="Helvetica,sans-Serif" font-size="10.00" fill="#000000"> </text>
<polygon fill="none" stroke="#000000" points="1339.5,-12 1339.5,-44 1708.5,-44 1708.5,-12 1339.5,-12"/>
<text text-anchor="start" x="1349.374" y="-25" font-family="Helvetica,sans-Serif" font-size="10.00" fill="#000000">+calcularCosto(fechaEntrada:Fecha, fechaSalida:Fecha, tarifaPorHora:double)</text>
</g>
<!-- A6&#45;&gt;A7 -->
<g id="edge11" class="edge">
<title>A6&#45;&gt;A7</title>
<path fill="none" stroke="#000000" d="M1231.6326,-60C1263.1853,-60 1296.3126,-60 1328.463,-60"/>
<polygon fill="#000000" stroke="#000000" points="1338.864,-60 1328.864,-64.5001 1333.864,-60 1328.864,-60.0001 1328.864,-60.0001 1328.864,-60.0001 1333.864,-60 1328.8639,-55.5001 1338.864,-60 1338.864,-60"/>
<text text-anchor="middle" x="1320.7378" y="-65.4524" font-family="Helvetica,sans-Serif" font-size="10.00" fill="#000000">1</text>
<text text-anchor="middle" x="1249.7587" y="-48.5476" font-family="Helvetica,sans-Serif" font-size="10.00" fill="#000000">1</text>
</g>
</g>
</svg>
